<svg width="160" height="30" xmlns="http://www.w3.org/2000/svg">
<g id="comdex-icon" viewBox="0 0 49.33 46.93">
            <path fill="#fe4350" d="M46.93,32.66H15.78V15.74H11V35a2.37,2.37,0,0,0,2.4,2.33H40.68l-5.63,4.94H4.79v-28H35.94a2.47,2.47,0,0,0,1.6-.59l11-9.61a2.34,2.34,0,0,0,.66-2.56A2.45,2.45,0,0,0,46.93,0H13.39A2.37,2.37,0,0,0,11,2.33V8.14h4.79V4.67h24.9L35,9.61H2.4A2.37,2.37,0,0,0,0,11.94V44.6a2.37,2.37,0,0,0,2.4,2.33H35.94a2.43,2.43,0,0,0,1.6-.6l11-9.6a2.34,2.34,0,0,0,.66-2.56,2.45,2.45,0,0,0-2.26-1.51Z" transform="translate(0 0)"/>
        </g>
</svg>

