<svg width="504" height="393" viewBox="0 0 504 393" fill="none" xmlns="http://www.w3.org/2000/svg">
<path d="M489.996 109.821H208.986C209.544 101.126 210.818 92.4933 212.795 84.0053C213.998 78.4975 217.505 73.7673 222.427 71.0133C227.853 67.9 232.361 63.4039 235.486 57.9863C238.615 52.5644 240.252 46.4163 240.232 40.1583V34.5567C240.072 25.2286 236.209 16.3497 229.498 9.86873C222.788 3.38823 213.779 -0.158275 204.451 0.00542539H86.8514C77.5506 -0.115665 68.5784 3.46243 61.9104 9.95073C55.2463 16.439 51.4264 25.3097 51.2934 34.6147V40.2163V40.2124C51.2622 46.4663 52.8872 52.6144 56.0082 58.0364C59.1254 63.4544 63.6254 67.9544 69.0432 71.0674C74.012 73.7783 77.5784 78.4893 78.844 84.0054C84.3245 110.341 84.3245 137.525 78.844 163.86C77.6057 169.372 74.0862 174.094 69.1565 176.852C63.7385 179.962 59.2424 184.446 56.1255 189.856C53.0083 195.267 51.3794 201.407 51.4028 207.653V213.255V213.251C51.5356 222.56 55.3559 231.435 62.0198 237.935C68.6878 244.431 77.6568 248.021 86.9648 247.916H204.565H204.561C213.881 248.037 222.866 244.455 229.541 237.955C236.221 231.455 240.045 222.572 240.178 213.252V207.65V207.654C240.194 201.404 238.553 195.263 235.424 189.853C232.299 184.443 227.795 179.959 222.369 176.853C217.459 174.048 213.978 169.283 212.795 163.748C210.869 155.221 209.65 146.549 209.154 137.822H489.994C497.725 137.822 503.994 131.553 503.994 123.822C503.994 116.092 497.725 109.822 489.994 109.822L489.996 109.821ZM212.066 207.54V213.142C211.796 217.079 208.394 220.06 204.453 219.806H86.8526C82.9346 220.029 79.5635 217.06 79.294 213.142V207.54C79.2315 204.919 80.5792 202.462 82.8213 201.103C94.5283 194.529 102.923 183.326 105.95 170.244C112.443 139.619 112.443 107.971 105.95 77.3418C102.892 64.2758 94.5053 53.0838 82.8213 46.4868C80.5674 45.1352 79.2197 42.6704 79.294 40.0454V34.4438V34.4477C79.6768 30.5727 83.0831 27.7133 86.9659 28.0063H204.566H204.562C208.484 27.7485 211.882 30.6977 212.179 34.6157V40.2173V40.2134C212.23 42.8501 210.859 45.3072 208.597 46.6548C196.909 53.2407 188.535 64.4398 185.523 77.5098C178.972 108.131 178.972 139.791 185.523 170.412C188.523 183.49 196.902 194.697 208.597 201.271C210.757 202.622 212.07 204.994 212.066 207.54H212.066Z" fill="white"/>
<path d="M201.205 288.062H90.215C66.297 288.093 43.367 297.608 26.457 314.519C9.543 331.433 0.031 354.363 0 378.281V392.281H291.2V378.281C291.173 354.402 281.688 331.504 264.825 314.597C247.958 297.691 225.087 288.152 201.208 288.062H201.205ZM29.565 364.281C32.7603 350.582 40.491 338.367 51.499 329.617C62.507 320.863 76.151 316.086 90.214 316.062H201.204C215.27 316.085 228.911 320.862 239.923 329.617C250.931 338.367 258.657 350.582 261.853 364.281H29.565Z" fill="white"/>
</svg>
