<svg width="314" height="314" viewBox="0 0 314 314" fill="none" xmlns="http://www.w3.org/2000/svg">
<path d="M0 274.402C0 284.797 4.1289 294.769 11.48 302.121C18.8316 309.473 28.804 313.601 39.199 313.601H84C94.398 313.601 104.367 309.472 111.719 302.121C119.071 294.769 123.199 284.797 123.199 274.402V229.601C123.187 225.132 122.41 220.703 120.906 216.496L216.441 120.906C220.664 122.418 225.113 123.195 229.601 123.199H274.402C284.797 123.199 294.769 119.07 302.121 111.719C309.473 104.367 313.601 94.399 313.601 84V39.199C313.601 28.804 309.472 18.832 302.121 11.48C294.769 4.1284 284.797 0 274.402 0H229.601C219.203 0 209.234 4.1289 201.882 11.48C194.53 18.8316 190.402 28.804 190.402 39.199V84C190.414 88.4688 191.191 92.8984 192.695 97.105L97.105 192.695C92.898 191.191 88.4683 190.414 84 190.402H39.199C28.804 190.402 18.832 194.531 11.48 201.882C4.1284 209.234 0 219.202 0 229.601V274.402ZM224 39.202C224 36.1122 226.508 33.6043 229.602 33.6043H274.403C275.887 33.6043 277.309 34.1941 278.36 35.2449C279.41 36.2957 280 37.7176 280 39.2019V84.0029C280 85.4873 279.41 86.9131 278.36 87.9638C277.309 89.0146 275.887 89.6044 274.403 89.6044H229.602C226.508 89.6044 224 87.0966 224 84.0028V39.202ZM33.6 229.602C33.6 226.508 36.1078 224 39.1977 224H83.9987C85.4831 224 86.9089 224.59 87.9596 225.641C89.0104 226.692 89.6002 228.118 89.6002 229.602V274.403C89.6002 275.887 89.0104 277.309 87.9596 278.36C86.9088 279.411 85.483 280 83.9987 280H39.1977C36.1079 280 33.6 277.493 33.6 274.403V229.602Z" fill="white"/>
<path d="M274.401 246.402C274.401 253.828 271.448 260.949 266.198 266.199C260.948 271.449 253.827 274.402 246.401 274.402H173.6V308.004L246.401 308.001C262.737 308.001 278.405 301.512 289.956 289.958C301.511 278.407 307.999 262.739 307.999 246.403V173.602H274.401L274.401 246.402Z" fill="white"/>
<path d="M5.59961 67.2016V140.003H39.2016L39.1977 67.2016C39.1977 59.7758 42.1508 52.6546 47.4008 47.4046C52.6508 42.1546 59.7718 39.2015 67.1978 39.2015H139.999V5.60352H67.1978C50.8618 5.60352 35.1938 12.0918 23.6428 23.6465C12.0878 35.1975 5.59981 50.8655 5.59981 67.2015L5.59961 67.2016Z" fill="white"/>
</svg>
