<svg width="296" height="296" viewBox="0 0 296 296" fill="none" xmlns="http://www.w3.org/2000/svg">
<path fill-rule="evenodd" clip-rule="evenodd" d="M117.141 65.754V65.8259C117.141 66.0722 117.151 66.3185 117.171 66.5648L117.192 66.8727L117.243 67.2421C117.479 69.2022 118.198 70.7313 119.152 71.9217C121.02 74.4463 124.016 76.0884 127.403 76.0884C127.403 76.0884 137.666 75.2982 137.666 65.6925V55.5634C137.666 52.8438 138.743 50.2269 140.673 48.3078C142.592 46.3784 145.209 45.3009 147.928 45.3009L281.341 45.3009C287.006 45.3009 291.603 40.7033 291.603 35.0384C291.603 29.3735 287.006 24.7759 281.341 24.7759C281.341 24.7759 189.84 24.7759 147.928 24.7759C139.759 24.7759 131.929 28.0188 126.161 33.7966C120.384 39.5641 117.141 47.3944 117.141 55.5634C117.141 60.6536 117.141 64.892 117.141 65.6925V65.754Z" fill="black"/>
<path fill-rule="evenodd" clip-rule="evenodd" d="M158.19 230.158V240.287C158.19 243.006 157.112 245.623 155.183 247.542C153.264 249.472 150.647 250.549 147.927 250.549L14.5148 250.549C8.84995 250.549 4.25235 255.147 4.25235 260.812C4.25235 266.477 8.84995 271.074 14.5148 271.074C14.5148 271.074 106.015 271.074 147.927 271.074C156.096 271.074 163.927 267.831 169.694 262.054C175.472 256.286 178.715 248.456 178.715 240.287C178.715 235.197 178.715 230.958 178.715 230.158C178.715 220.675 168.452 240.287 168.452 240.287C162.787 219.762 158.19 224.359 158.19 230.024V230.158Z" fill="black"/>
<path fill-rule="evenodd" clip-rule="evenodd" d="M96.6141 76.0884H65.8266C48.8224 76.0884 35.0391 89.873 35.0391 106.876V147.926C35.0391 153.591 39.6414 158.188 45.3016 158.188C50.9618 158.188 55.5641 153.591 55.5641 147.926V106.876C55.5641 101.211 60.1585 96.6134 65.8266 96.6134H96.6141C102.274 96.6134 106.877 92.0158 106.877 86.3509C106.877 80.686 102.274 76.0884 96.6141 76.0884Z" fill="black"/>
<path fill-rule="evenodd" clip-rule="evenodd" d="M199.237 219.763H230.025C247.029 219.763 260.812 205.979 260.812 188.976V147.926C260.812 142.261 256.21 137.663 250.55 137.663C244.89 137.663 240.287 142.261 240.287 147.926V188.976C240.287 194.641 235.693 199.238 230.025 199.238H199.237C193.577 199.238 188.975 203.836 188.975 209.501C188.975 215.166 193.577 219.763 199.237 219.763Z" fill="black"/>
<path fill-rule="evenodd" clip-rule="evenodd" d="M260.817 147.926V106.876C260.817 89.8735 247.034 76.0889 230.03 76.0889C202.818 76.0889 158.192 76.0889 158.192 76.0889C152.532 76.0889 147.93 80.6865 147.93 86.3514C147.93 92.0163 152.532 96.6139 158.192 96.6139C158.192 96.6139 202.818 96.6139 230.03 96.6139C235.698 96.6139 240.292 101.211 240.292 106.876V147.926C240.292 153.591 244.895 158.189 250.555 158.189C256.215 158.189 260.817 153.591 260.817 147.926Z" fill="black"/>
<path fill-rule="evenodd" clip-rule="evenodd" d="M35.0421 147.926V188.976C35.0421 205.979 48.8255 219.763 65.8297 219.763C93.0411 219.763 137.667 219.763 137.667 219.763C143.327 219.763 147.93 215.166 147.93 209.501C147.93 203.836 143.327 199.238 137.667 199.238C137.667 199.238 93.0411 199.238 65.8297 199.238C60.1617 199.238 55.5672 194.641 55.5672 188.976V147.926C55.5672 142.261 50.9648 137.663 45.3047 137.663C39.6445 137.663 35.0421 142.261 35.0421 147.926Z" fill="black"/>
<path fill-rule="evenodd" clip-rule="evenodd" d="M147.928 117.139C130.933 117.139 117.141 130.931 117.141 147.926C117.141 164.921 130.933 178.714 147.928 178.714C164.923 178.714 178.716 164.921 178.716 147.926C178.716 130.931 164.923 117.139 147.928 117.139ZM147.928 137.664C153.593 137.664 158.191 142.261 158.191 147.926C158.191 153.591 153.593 158.189 147.928 158.189C142.263 158.189 137.666 153.591 137.666 147.926C137.666 142.261 142.263 137.664 147.928 137.664Z" fill="black"/>
<path fill-rule="evenodd" clip-rule="evenodd" d="M253.56 21.7688L274.085 42.2938C278.093 46.3013 284.592 46.2984 288.598 42.2927C292.603 38.287 292.606 31.7879 288.599 27.7804L268.074 7.2554C264.066 3.24789 257.567 3.25081 253.561 7.2565C249.556 11.2622 249.553 17.7613 253.56 21.7688Z" fill="black"/>
<path fill-rule="evenodd" clip-rule="evenodd" d="M42.2952 274.083L21.7702 253.558C17.7627 249.551 11.2636 249.554 7.25792 253.559C3.25223 257.565 3.24931 264.064 7.25682 268.072L27.7818 288.597C31.7893 292.604 38.2884 292.601 42.2941 288.596C46.2998 284.59 46.3027 278.091 42.2952 274.083Z" fill="black"/>
<path fill-rule="evenodd" clip-rule="evenodd" d="M268.074 62.8213L288.599 42.2963C292.606 38.2888 292.603 31.7897 288.598 27.784C284.592 23.7783 278.093 23.7754 274.085 27.7829L253.56 48.3079C249.553 52.3154 249.556 58.8145 253.561 62.8202C257.567 66.8259 264.066 66.8288 268.074 62.8213Z" fill="black"/>
<path fill-rule="evenodd" clip-rule="evenodd" d="M27.7818 233.031L7.25682 253.556C3.24931 257.563 3.25223 264.062 7.25792 268.068C11.2636 272.074 17.7627 272.077 21.7702 268.069L42.2952 247.544C46.3027 243.537 46.2998 237.038 42.2941 233.032C38.2884 229.026 31.7893 229.023 27.7818 233.031Z" fill="black"/>
<path d="M168.45 240.288C174.118 240.288 178.712 235.694 178.712 230.026C178.712 224.358 174.118 219.763 168.45 219.763C162.782 219.763 158.188 224.358 158.188 230.026C158.188 235.694 162.782 240.288 168.45 240.288Z" fill="black"/>
</svg>
