<svg width="477" height="443" viewBox="0 0 477 443" fill="none" xmlns="http://www.w3.org/2000/svg">
<path d="M100.796 224.004C100.796 196.168 78.23 173.606 50.398 173.606C22.562 173.606 0 196.168 0 224.004C0 251.836 22.562 274.402 50.398 274.402C78.226 274.402 100.796 251.836 100.796 224.004ZM50.394 257.602C31.863 257.602 16.792 242.532 16.792 224C16.792 205.468 31.862 190.398 50.394 190.398C68.926 190.398 83.996 205.468 83.996 224C83.996 242.535 68.926 257.602 50.394 257.602Z" fill="black"/>
<path d="M319.197 112.005C347.033 112.005 369.595 89.439 369.595 61.607C369.595 33.771 347.033 11.209 319.197 11.209C291.361 11.209 268.799 33.771 268.799 61.607C268.799 89.435 291.361 112.005 319.197 112.005ZM319.197 28.005C337.728 28.005 352.799 43.075 352.799 61.607C352.799 80.139 337.729 95.209 319.197 95.209C300.665 95.209 285.595 80.139 285.595 61.607C285.599 43.076 300.665 28.005 319.197 28.005Z" fill="black"/>
<path d="M324.796 324.805C296.96 324.805 274.398 347.367 274.398 375.203C274.398 403.039 296.96 425.601 324.796 425.601C352.632 425.601 375.194 403.039 375.194 375.203C375.194 347.367 352.632 324.805 324.796 324.805ZM324.796 408.805C306.265 408.805 291.194 393.735 291.194 375.203C291.194 356.671 306.264 341.601 324.796 341.601C343.328 341.601 358.398 356.671 358.398 375.203C358.395 393.734 343.328 408.805 324.796 408.805Z" fill="black"/>
<path d="M414.396 156.805C385.205 156.805 360.802 177.137 354.458 204.407H306.681C300.068 167.802 268.115 140.009 229.595 140.009C218.126 140.009 207.267 142.528 197.45 146.954L174.345 108.45C187.579 97.141 195.997 80.364 195.997 61.602C195.997 27.582 168.423 0 134.395 0C100.379 0 72.793 27.578 72.793 61.602C72.793 95.618 100.379 123.204 134.395 123.204C139.582 123.204 144.586 122.493 149.403 121.29L174.317 162.825C160.044 177.02 151.196 196.677 151.196 218.403C151.196 242.946 162.493 264.837 180.149 279.212L155.004 321.118C150.188 319.915 145.184 319.204 139.996 319.204C105.98 319.204 78.394 346.782 78.394 380.806C78.394 414.822 105.98 442.408 139.996 442.408C174.023 442.408 201.598 414.822 201.598 380.806C201.598 362.04 193.18 345.263 179.95 333.966L204.708 292.704C212.536 295.325 220.892 296.802 229.599 296.802C268.115 296.802 300.068 269.008 306.685 232.403H354.462C360.806 259.665 385.204 280.006 414.4 280.006C448.427 280.006 476.002 252.419 476.002 218.403C475.998 184.383 448.424 156.805 414.397 156.805L414.396 156.805ZM100.796 61.6017C100.796 43.0707 115.866 27.9997 134.398 27.9997C152.93 27.9997 168 43.0697 168 61.6017C168 80.1337 152.93 95.2037 134.398 95.2037C115.866 95.2037 100.796 80.1337 100.796 61.6017ZM139.995 414.402C121.464 414.402 106.393 399.332 106.393 380.8C106.393 362.268 121.463 347.198 139.995 347.198C158.527 347.198 173.597 362.268 173.597 380.8C173.597 399.332 158.527 414.402 139.995 414.402V414.402ZM179.194 218.402C179.194 190.613 201.799 168.004 229.592 168.004C257.385 168.004 279.99 190.617 279.99 218.402C279.99 221.437 279.67 224.39 279.162 227.273L272.342 220.452C270.701 218.812 268.041 218.812 266.4 220.452C264.76 222.093 264.76 224.753 266.4 226.394L276.552 236.546C274.15 242.741 270.576 248.335 266.075 253.073L244.497 231.491C242.857 229.85 240.196 229.85 238.556 231.491C236.915 233.128 236.915 235.792 238.556 237.432L259.779 258.662C254.392 262.709 248.193 265.698 241.451 267.338L227.849 253.736C226.208 252.095 223.548 252.095 221.907 253.736C220.267 255.377 220.267 258.037 221.907 259.678L230.97 268.74C230.513 268.744 230.064 268.803 229.595 268.803C201.802 268.803 179.193 246.189 179.193 218.4L179.194 218.402ZM414.394 252.004C395.863 252.004 380.792 236.934 380.792 218.402C380.792 199.87 395.862 184.8 414.394 184.8C432.926 184.8 447.996 199.87 447.996 218.402C447.996 236.934 432.926 252.004 414.394 252.004Z" fill="black"/>
</svg>
