<svg width="477" height="443" viewBox="0 0 477 443" fill="none" xmlns="http://www.w3.org/2000/svg">
<path d="M101.396 224.004C101.396 196.168 78.8296 173.606 50.9976 173.606C23.1616 173.606 0.599609 196.168 0.599609 224.004C0.599609 251.836 23.1616 274.402 50.9976 274.402C78.8256 274.402 101.396 251.836 101.396 224.004ZM50.9936 257.602C32.4626 257.602 17.3916 242.532 17.3916 224C17.3916 205.468 32.4616 190.398 50.9936 190.398C69.5256 190.398 84.5956 205.468 84.5956 224C84.5956 242.535 69.5256 257.602 50.9936 257.602Z" fill="white"/>
<path d="M319.796 112.005C347.632 112.005 370.194 89.439 370.194 61.607C370.194 33.771 347.632 11.209 319.796 11.209C291.96 11.209 269.398 33.771 269.398 61.607C269.398 89.435 291.96 112.005 319.796 112.005ZM319.796 28.005C338.327 28.005 353.398 43.075 353.398 61.607C353.398 80.139 338.328 95.209 319.796 95.209C301.264 95.209 286.194 80.139 286.194 61.607C286.198 43.076 301.264 28.005 319.796 28.005Z" fill="white"/>
<path d="M325.396 324.805C297.56 324.805 274.998 347.367 274.998 375.203C274.998 403.039 297.56 425.601 325.396 425.601C353.232 425.601 375.794 403.039 375.794 375.203C375.794 347.367 353.232 324.805 325.396 324.805ZM325.396 408.805C306.865 408.805 291.794 393.735 291.794 375.203C291.794 356.671 306.864 341.601 325.396 341.601C343.928 341.601 358.998 356.671 358.998 375.203C358.994 393.734 343.928 408.805 325.396 408.805Z" fill="white"/>
<path d="M414.996 156.805C385.805 156.805 361.402 177.137 355.058 204.407H307.281C300.667 167.802 268.715 140.009 230.195 140.009C218.726 140.009 207.867 142.528 198.05 146.954L174.945 108.45C188.179 97.141 196.597 80.364 196.597 61.602C196.597 27.582 169.023 0 134.995 0C100.979 0 73.3926 27.578 73.3926 61.602C73.3926 95.618 100.979 123.204 134.995 123.204C140.182 123.204 145.186 122.493 150.003 121.29L174.917 162.825C160.644 177.02 151.796 196.677 151.796 218.403C151.796 242.946 163.093 264.837 180.749 279.212L155.604 321.118C150.787 319.915 145.783 319.204 140.596 319.204C106.58 319.204 78.9936 346.782 78.9936 380.806C78.9936 414.822 106.58 442.408 140.596 442.408C174.623 442.408 202.198 414.822 202.198 380.806C202.198 362.04 193.78 345.263 180.55 333.966L205.308 292.704C213.136 295.325 221.492 296.802 230.199 296.802C268.715 296.802 300.668 269.008 307.285 232.403H355.062C361.405 259.665 385.804 280.006 415 280.006C449.027 280.006 476.602 252.419 476.602 218.403C476.598 184.383 449.024 156.805 414.997 156.805L414.996 156.805ZM101.396 61.6017C101.396 43.0707 116.466 27.9997 134.998 27.9997C153.53 27.9997 168.6 43.0697 168.6 61.6017C168.6 80.1337 153.53 95.2037 134.998 95.2037C116.466 95.2037 101.396 80.1337 101.396 61.6017ZM140.595 414.402C122.064 414.402 106.993 399.332 106.993 380.8C106.993 362.268 122.063 347.198 140.595 347.198C159.127 347.198 174.197 362.268 174.197 380.8C174.197 399.332 159.127 414.402 140.595 414.402V414.402ZM179.794 218.402C179.794 190.613 202.399 168.004 230.192 168.004C257.985 168.004 280.59 190.617 280.59 218.402C280.59 221.437 280.269 224.39 279.761 227.273L272.941 220.452C271.301 218.812 268.64 218.812 267 220.452C265.359 222.093 265.359 224.753 267 226.394L277.152 236.546C274.749 242.741 271.175 248.335 266.675 253.073L245.097 231.491C243.456 229.85 240.796 229.85 239.155 231.491C237.515 233.128 237.515 235.792 239.155 237.432L260.378 258.662C254.992 262.709 248.792 265.698 242.05 267.338L228.448 253.736C226.808 252.095 224.148 252.095 222.507 253.736C220.866 255.377 220.866 258.037 222.507 259.678L231.569 268.74C231.112 268.744 230.663 268.803 230.194 268.803C202.401 268.803 179.792 246.189 179.792 218.4L179.794 218.402ZM414.994 252.004C396.463 252.004 381.392 236.934 381.392 218.402C381.392 199.87 396.462 184.8 414.994 184.8C433.526 184.8 448.596 199.87 448.596 218.402C448.596 236.934 433.526 252.004 414.994 252.004Z" fill="white"/>
</svg>
