<svg width="454" height="454" viewBox="0 0 454 454" fill="none" xmlns="http://www.w3.org/2000/svg">
<path fill-rule="evenodd" clip-rule="evenodd" d="M114.8 232.401V445.201H97.999V232.401H114.8Z" fill="white"/>
<path fill-rule="evenodd" clip-rule="evenodd" d="M238 243.601V445.201H221.199V243.601H238Z" fill="white"/>
<path fill-rule="evenodd" clip-rule="evenodd" d="M361.2 187.601V445.201H344.403V187.601H361.2Z" fill="white"/>
<path fill-rule="evenodd" clip-rule="evenodd" d="M0 42C0 18.805 18.805 0 42 0H411.6C434.795 0 453.6 18.805 453.6 42V411.6C453.6 434.76 434.932 453.6 411.702 453.6H41.902C18.672 453.6 0.00400543 434.76 0.00400543 411.6L0 42ZM42 16.801C28.082 16.801 16.801 28.082 16.801 42V254.32C21.7463 249.898 27.863 244.937 35.055 240.054C56.102 225.765 86.809 211.87 124.367 214.757C160.406 217.53 188.347 225.862 212.484 233.308C213.257 233.546 214.031 233.785 214.796 234.023C238.112 241.218 257.132 247.089 277.417 247.089C285.566 247.089 295.976 241.847 309.081 231.616C319.327 223.616 330.054 213.546 341.448 202.846C344.323 200.151 347.238 197.416 350.195 194.662C364.652 181.217 380.07 167.502 395.812 157.627C408.691 149.549 422.519 143.568 436.8 142.865V41.9952C436.8 28.0772 425.519 16.7962 411.601 16.7962L42 16.801ZM436.8 159.701C426.831 160.392 416.179 164.685 404.741 171.861C390.487 180.802 376.093 193.525 361.636 206.966C358.843 209.564 356.042 212.197 353.242 214.825C341.789 225.579 330.328 236.341 319.422 244.856C306.125 255.239 291.737 263.891 277.417 263.891C254.534 263.891 233.28 257.321 210.796 250.371C209.711 250.035 208.621 249.7 207.531 249.364C183.582 241.977 157.14 234.13 123.078 231.509C90.5269 229.005 63.5699 241.005 44.4879 253.958C34.9684 260.418 27.5189 267.048 22.4679 272.044C19.964 274.52 18.0617 276.583 16.7999 278.008V411.598C16.7999 425.547 28.0109 436.797 41.8979 436.797H411.698C425.581 436.797 436.796 425.547 436.796 411.598L436.8 159.701Z" fill="white"/>
<path fill-rule="evenodd" clip-rule="evenodd" d="M109.2 249.201C124.665 249.201 137.2 236.666 137.2 221.201C137.2 205.74 124.665 193.201 109.2 193.201C93.7392 193.201 81.2002 205.74 81.2002 221.201C81.2002 236.666 93.7392 249.201 109.2 249.201V249.201Z" fill="white"/>
<path fill-rule="evenodd" clip-rule="evenodd" d="M232.4 271.601C247.861 271.601 260.4 259.066 260.4 243.601C260.4 228.136 247.861 215.601 232.4 215.601C216.935 215.601 204.4 228.136 204.4 243.601C204.4 259.066 216.935 271.601 232.4 271.601Z" fill="white"/>
<path fill-rule="evenodd" clip-rule="evenodd" d="M350 232.401C365.465 232.401 378 219.862 378 204.401C378 188.936 365.465 176.401 350 176.401C334.535 176.401 322 188.936 322 204.401C322 219.862 334.535 232.401 350 232.401Z" fill="white"/>
</svg>
