<svg width="288" height="288" viewBox="0 0 288 288" fill="none" xmlns="http://www.w3.org/2000/svg">
<path d="M69.235 126.444L68.0285 127.65L68.7124 129.214C74.4294 142.281 72.2293 157.717 61.6846 168.261C48.1409 181.805 26.2015 181.805 12.6578 168.261C-0.885922 154.718 -0.885922 132.488 12.6578 118.944C23.2141 108.388 38.929 106.217 51.379 111.9L52.9578 112.621L54.185 111.394L95.5567 70.022C97.5368 72.9396 99.752 75.6995 102.341 78.2882C104.929 80.8768 107.689 83.092 110.607 85.0721L69.235 126.444ZM126.153 217.971L127.36 219.177L128.923 218.493C141.991 212.776 157.426 214.976 167.971 225.521C181.515 239.065 181.515 261.004 167.971 274.548C154.427 288.091 132.488 288.091 118.944 274.548C108.388 263.991 106.205 248.259 111.628 235.785L112.307 234.224L111.103 233.021L69.7316 191.649C72.6492 189.669 75.4091 187.454 77.9978 184.865C80.5865 182.276 82.8016 179.516 84.7817 176.599L126.153 217.971ZM217.971 160.762L219.177 159.555L218.493 157.992C212.776 144.925 214.976 129.489 225.521 118.944C239.065 105.4 261.004 105.4 274.548 118.944C288.091 132.488 288.095 154.724 274.829 168.27C264.281 178.811 248.567 180.998 235.808 175.297L234.237 174.595L233.021 175.812L191.649 217.184C189.669 214.266 187.454 211.506 184.865 208.917C182.276 206.329 179.516 204.114 176.599 202.133L217.971 160.762ZM175.297 51.6878L174.595 53.2587L175.812 54.4754L217.184 95.8471C214.266 97.8272 211.506 100.042 208.917 102.631C206.398 105.15 204.224 107.84 202.392 110.575L161.052 69.235L159.846 68.0285L158.282 68.7124C145.215 74.4294 129.779 72.2293 119.235 61.6846C105.691 48.1409 105.691 26.2015 119.235 12.6578C132.778 -0.885922 154.718 -0.885922 168.261 12.6578C178.809 23.2058 180.999 38.9258 175.297 51.6878ZM49.5386 131.381C42.7543 124.596 31.8785 124.596 25.0942 131.381C18.3099 138.165 18.3099 149.041 25.0942 155.825C31.8785 162.609 42.7543 162.609 49.5386 155.825C56.3229 149.041 56.3229 138.165 49.5386 131.381ZM155.825 237.667C149.041 230.883 138.165 230.883 131.381 237.667C124.596 244.451 124.596 255.327 131.381 262.111C138.165 268.896 149.041 268.896 155.825 262.111C162.609 255.327 162.609 244.451 155.825 237.667ZM237.667 155.825C244.451 162.609 255.327 162.609 262.111 155.825C268.896 149.041 268.896 138.165 262.111 131.381C255.327 124.596 244.451 124.596 237.667 131.381C230.883 138.165 230.883 149.041 237.667 155.825ZM131.381 49.5386C138.165 56.3229 149.041 56.3229 155.825 49.5386C162.609 42.7543 162.609 31.8785 155.825 25.0942C149.041 18.3099 138.165 18.3099 131.381 25.0942C124.596 31.8785 124.596 42.7543 131.381 49.5386Z" fill="#EDEDED" stroke="#2E303E" stroke-width="5"/>
</svg>
