<svg width="271" height="270" viewBox="0 0 271 270" fill="none" xmlns="http://www.w3.org/2000/svg">
<path d="M0 12.9808V115.529C0 118.972 1.36762 122.273 3.80198 124.708C6.23635 127.142 9.53805 128.51 12.9808 128.51H115.529C117.25 128.57 118.965 128.276 120.567 127.645C122.169 127.014 123.624 126.06 124.842 124.842C126.06 123.624 127.014 122.169 127.645 120.567C128.276 118.965 128.57 117.25 128.51 115.529V12.9808C128.51 9.53805 127.142 6.23635 124.708 3.80198C122.273 1.36762 118.972 0 115.529 0H12.9808C9.5724 0.108283 6.33324 1.51066 3.92195 3.92195C1.51066 6.33324 0.108283 9.5724 0 12.9808V12.9808ZM25.9615 25.9615H102.548V102.548H25.9615V25.9615Z" fill="white"/>
<path d="M270.006 12.9808C269.897 9.5724 268.495 6.33324 266.084 3.92195C263.672 1.51066 260.433 0.108283 257.025 0H154.477C151.034 0 147.732 1.36762 145.298 3.80198C142.864 6.23635 141.496 9.53805 141.496 12.9808V115.529C141.436 117.25 141.73 118.965 142.361 120.567C142.992 122.169 143.946 123.624 145.164 124.842C146.381 126.06 147.836 127.014 149.439 127.645C151.041 128.276 152.756 128.57 154.477 128.51H257.025C260.468 128.51 263.769 127.142 266.204 124.708C268.638 122.273 270.006 118.972 270.006 115.529V12.9808ZM244.044 102.548H167.458V25.9615H244.044V102.548Z" fill="white"/>
<path d="M270.006 257.019V154.471C270.006 151.029 268.638 147.727 266.204 145.293C263.769 142.858 260.468 141.491 257.025 141.491H154.477C152.756 141.43 151.041 141.725 149.439 142.356C147.836 142.987 146.381 143.941 145.164 145.158C143.946 146.376 142.992 147.831 142.361 149.433C141.73 151.036 141.436 152.75 141.496 154.471V257.019C141.496 260.462 142.864 263.764 145.298 266.198C147.732 268.633 151.034 270 154.477 270H257.025C260.433 269.892 263.672 268.49 266.084 266.078C268.495 263.667 269.897 260.428 270.006 257.019V257.019ZM244.044 244.039H167.458V167.452H244.044V244.039Z" fill="white"/>
<path d="M0 257.019C0.108283 260.428 1.51066 263.667 3.92195 266.078C6.33324 268.49 9.5724 269.892 12.9808 270H115.529C118.972 270 122.273 268.633 124.708 266.198C127.142 263.764 128.51 260.462 128.51 257.019V154.471C128.57 152.75 128.276 151.036 127.645 149.433C127.014 147.831 126.06 146.376 124.842 145.158C123.624 143.941 122.169 142.987 120.567 142.356C118.965 141.725 117.25 141.43 115.529 141.491H12.9808C9.53805 141.491 6.23635 142.858 3.80198 145.293C1.36762 147.727 0 151.029 0 154.471V257.019ZM25.9615 167.452H102.548V244.039H25.9615V167.452Z" fill="white"/>
</svg>
