<svg width="276" height="261" viewBox="0 0 276 261" fill="none" xmlns="http://www.w3.org/2000/svg">
<path d="M73.2659 105.034C71.3374 103.106 67.5265 101.527 64.7995 101.527H5.28377C2.55673 101.527 0.324219 103.755 0.324219 106.487V255.276C0.324219 257.998 2.55673 260.236 5.28377 260.236H124.315C127.042 260.236 129.275 257.998 129.275 255.276V166.002C129.275 163.271 127.695 159.464 125.772 157.537L73.2659 105.034ZM119.356 250.317H10.2433V111.446H64.6737C65.1185 111.514 65.9716 111.873 66.3488 112.134L118.668 164.463C118.93 164.831 119.288 165.683 119.36 166.138L119.356 250.317Z" fill="#EDEDED"/>
<path d="M90.5273 55.4471C90.5273 24.8658 115.394 0 145.966 0C176.537 0 201.418 24.8659 201.418 55.4471C201.418 86.019 176.536 110.895 145.966 110.895C115.394 110.895 90.5273 86.019 90.5273 55.4471ZM103.081 55.4471C103.081 79.0925 122.325 98.3405 145.966 98.3405C169.616 98.3405 188.864 79.0925 188.864 55.4471C188.864 31.7918 169.616 12.5443 145.966 12.5443C122.325 12.5444 103.081 31.7919 103.081 55.4471Z" fill="#EDEDED"/>
<path d="M218.16 180.204C221.633 180.204 224.432 177.395 224.432 173.927C224.432 129.513 188.305 98.3408 143.881 98.3408C128.547 98.3408 113.635 102.661 100.756 110.832C97.8356 112.687 96.9639 116.571 98.8331 119.497C100.688 122.412 104.573 123.304 107.488 121.425C118.352 114.537 130.935 110.895 143.881 110.895C181.374 110.895 211.883 136.434 211.883 173.927C211.883 177.395 214.693 180.204 218.16 180.204Z" fill="#EDEDED"/>
<path d="M186.054 260.236C183.763 260.236 181.477 259.369 179.734 257.62L142.401 220.282C138.913 216.795 138.913 211.143 142.401 207.646C145.888 204.159 151.55 204.159 155.042 207.646L186.054 238.663L260.367 164.346C263.859 160.85 269.521 160.85 273.003 164.346C276.505 167.834 276.505 173.49 273.003 176.983L192.37 257.62C190.621 259.369 188.345 260.236 186.054 260.236Z" fill="#EDEDED"/>
<path d="M74.495 175.853H35.4951C33.0636 175.853 31.0977 173.882 31.0977 171.451C31.0977 169.019 33.0636 167.048 35.4951 167.048H74.495C76.9264 167.048 78.897 169.019 78.897 171.451C78.897 173.882 76.9264 175.853 74.495 175.853Z" fill="#EDEDED"/>
<path d="M74.495 203.467H35.4951C33.0636 203.467 31.0977 201.5 31.0977 199.069C31.0977 196.637 33.0636 194.661 35.4951 194.661H74.495C76.9264 194.661 78.897 196.637 78.897 199.069C78.897 201.5 76.9264 203.467 74.495 203.467Z" fill="#EDEDED"/>
<path d="M74.495 231.083H35.4951C33.0636 231.083 31.0977 229.117 31.0977 226.686C31.0977 224.255 33.0636 222.278 35.4951 222.278H74.495C76.9264 222.278 78.897 224.255 78.897 226.686C78.8972 229.117 76.9264 231.083 74.495 231.083Z" fill="#EDEDED"/>
</svg>
