<svg width="290" height="290" viewBox="0 0 290 290" fill="none" xmlns="http://www.w3.org/2000/svg">
<path d="M147.852 71.833C108.487 71.833 76.0914 101.523 71.7344 139.728H49.9095C44.748 139.728 40.5547 143.912 40.5547 149.083C40.5547 154.244 44.748 158.438 49.9095 158.438H71.9121C76.7953 196.068 108.892 225.154 147.852 225.154C190.195 225.154 224.518 190.834 224.518 148.498C224.518 106.156 190.195 71.833 147.852 71.833ZM147.852 206.444C119.245 206.444 95.5378 185.698 90.8182 158.438H112.634C116.214 175.695 131.488 188.668 149.815 188.668C170.8 188.668 187.809 171.658 187.809 150.683C187.809 129.707 170.8 112.697 149.815 112.697C132.667 112.697 118.352 124.131 113.623 139.73H90.6335C94.8712 111.895 118.836 90.545 147.85 90.545C179.862 90.5427 205.808 116.488 205.808 148.498C205.808 180.501 179.862 206.444 147.852 206.444ZM130.539 150.683C130.539 140.039 139.171 131.407 149.815 131.407C160.458 131.407 169.1 140.039 169.1 150.683C169.1 161.326 160.458 169.958 149.815 169.958C139.171 169.958 130.539 161.324 130.539 150.683Z" fill="black"/>
<path d="M233.908 0H56.0916C25.1037 0 0 25.1037 0 56.0823V233.915C0 264.887 25.1037 290 56.0916 290H233.906C264.894 290 289.998 264.896 289.998 233.918V56.0823C290 25.1131 264.896 0 233.908 0ZM271.29 233.918C271.29 254.564 254.555 271.29 233.908 271.29H56.0916C35.4361 271.29 18.7097 254.564 18.7097 233.918V56.0823C18.7097 35.4361 35.4455 18.7097 56.0916 18.7097H233.906C254.564 18.7097 271.29 35.4361 271.29 56.0823V233.918Z" fill="black"/>
</svg>
