<svg width="277" height="231" viewBox="0 0 277 231" fill="none" xmlns="http://www.w3.org/2000/svg">
<path d="M111.795 0C82.1856 0 55.4021 3.62985 35.4531 9.864C25.4787 12.9811 17.1413 16.7579 10.8963 21.372C4.98192 25.7419 0.565591 31.4641 0.107765 38.3258C0.103129 38.3951 0.111579 38.4619 0.107765 38.5313C0.0517274 38.8367 0.0173956 39.1457 0.00502163 39.456V84.9743C-0.00166959 85.1454 -0.00166959 85.3168 0.00502163 85.488V131.006C-0.00167388 131.177 -0.00167388 131.349 0.00502163 131.52V177.552C0.00502163 184.935 4.65131 191.022 10.8963 195.636C17.1413 200.25 25.4787 203.924 35.4531 207.041C55.402 213.275 82.1856 217.008 111.795 217.008C131.532 217.008 149.139 216.689 165.635 213.617C167.342 213.28 168.846 212.281 169.819 210.839C170.792 209.397 171.156 207.628 170.83 205.919C170.505 204.21 169.516 202.7 168.081 201.716C166.646 200.733 164.88 200.357 163.169 200.671C148.182 203.463 131.373 203.856 111.795 203.856C83.2962 203.856 57.4886 200.172 39.3576 194.506C30.292 191.673 23.2112 188.306 18.8079 185.053C14.4047 181.799 13.1568 179.249 13.1568 177.552V150.94C19.126 154.905 26.5207 158.218 35.4531 161.009C55.402 167.243 82.1856 170.976 111.795 170.976C141.404 170.976 168.188 167.243 188.137 161.009C198.111 157.892 206.449 154.218 212.694 149.604C218.939 144.99 223.585 138.903 223.585 131.52V85.488V84.8715V39.456C223.585 39.2443 223.593 39.0491 223.585 38.8395C223.56 38.6325 223.526 38.4268 223.482 38.223C222.986 31.4078 218.578 25.7198 212.694 21.372C206.449 16.7579 198.111 12.9811 188.137 9.864C168.188 3.62985 141.404 0 111.795 0V0ZM111.795 13.152C140.294 13.152 166.101 16.7334 184.232 22.3995C193.298 25.2325 200.379 28.7019 204.782 31.9553C209.185 35.2086 210.433 37.7594 210.433 39.456C210.433 41.1526 209.185 43.7034 204.782 46.9568C200.379 50.2101 193.298 53.5767 184.232 56.4098C166.101 62.0758 140.294 65.76 111.795 65.76C83.2962 65.76 57.4886 62.0758 39.3576 56.4098C30.292 53.5767 23.2112 50.2101 18.8079 46.9568C14.4047 43.7034 13.1568 41.1526 13.1568 39.456C13.1568 37.7594 14.4047 35.2086 18.8079 31.9553C23.2112 28.7019 30.292 25.2325 39.3576 22.3995C57.4886 16.7334 83.2962 13.152 111.795 13.152V13.152ZM13.1568 59.184C19.1023 63.077 26.6318 66.1885 35.4531 68.9453C55.402 75.1794 82.1856 78.912 111.795 78.912C141.404 78.912 168.188 75.1794 188.137 68.9453C196.958 66.1885 204.488 63.077 210.433 59.184V85.077V85.488C210.433 87.1846 209.185 89.7354 204.782 92.9888C200.379 96.2421 193.298 99.6087 184.232 102.442C166.101 108.108 140.294 111.792 111.795 111.792C83.2962 111.792 57.4886 108.108 39.3576 102.442C30.292 99.6087 23.2112 96.2421 18.8079 92.9888C14.4047 89.7354 13.1568 87.1846 13.1568 85.488C13.1664 85.2826 13.1664 85.0769 13.1568 84.8715V59.184V59.184ZM13.1568 105.216C19.1023 109.109 26.6318 112.22 35.4531 114.977C55.402 121.211 82.1856 124.944 111.795 124.944C141.404 124.944 168.188 121.211 188.137 114.977C196.958 112.22 204.488 109.109 210.433 105.216V131.52C210.433 133.217 209.185 135.767 204.782 139.021C200.379 142.274 193.298 145.641 184.232 148.474C166.101 154.14 140.294 157.824 111.795 157.824C83.2962 157.824 57.4886 154.14 39.3576 148.474C30.292 145.641 23.2112 142.274 18.8079 139.021C14.4047 135.767 13.1568 133.217 13.1568 131.52C13.1699 131.28 13.1699 131.04 13.1568 130.801V105.216V105.216ZM217.009 157.824C202.818 157.824 190.706 169.235 190.706 184.128V186.491C182.981 190.558 177.554 198.203 177.554 207.144C177.554 214.431 180.811 220.846 185.876 224.714C190.942 228.583 197.321 230.16 203.857 230.16H249.888C256.425 230.16 262.804 228.583 267.869 224.714C272.935 220.846 276.192 214.431 276.192 207.144C276.192 199.115 272.201 191.507 265.506 186.8C263.537 174.58 253.254 164.4 240.025 164.4H235.298C230.542 160.657 224.434 157.824 217.009 157.824ZM217.009 170.976C221.393 170.976 227.087 173.862 228.825 175.6C230.048 176.836 231.71 177.538 233.449 177.552H240.025C246.481 177.552 253.176 184.917 253.176 190.704C253.178 191.917 253.514 193.106 254.149 194.139C254.783 195.173 255.691 196.011 256.773 196.561C260.078 198.236 263.04 203.34 263.04 207.144C263.04 210.954 261.921 212.657 259.855 214.234C257.789 215.811 254.281 217.008 249.888 217.008H203.857C199.464 217.008 195.956 215.811 193.891 214.234C191.825 212.657 190.706 210.954 190.706 207.144C190.706 202.4 193.669 198.554 199.131 196.972C200.488 196.574 201.68 195.75 202.532 194.621C203.383 193.492 203.848 192.118 203.857 190.704V184.128C203.857 175.948 209.41 170.976 217.009 170.976Z" fill="black"/>
</svg>
