<svg width="233" height="252" viewBox="0 0 233 252" fill="none" xmlns="http://www.w3.org/2000/svg">
<path fill-rule="evenodd" clip-rule="evenodd" d="M123.169 173.927C162.654 170.384 193.6 137.206 193.6 96.7999V101.201C214.985 101.201 232.32 83.8651 232.32 62.481C232.32 41.0964 214.985 23.761 193.6 23.761V14.52C193.6 6.50085 187.099 0 179.08 0H53.24C45.2206 0 38.72 6.50085 38.72 14.52V23.761C17.3355 23.761 0 41.0964 0 62.481C0 83.8651 17.3355 101.201 38.72 101.201V96.8542C38.7476 137.065 69.4221 170.105 108.649 173.88V199.336C108.649 203.945 104.913 207.681 100.305 207.681H99.22C95.2105 207.681 91.96 210.931 91.96 214.941C91.96 218.95 95.2105 222.201 99.22 222.201H133.1C137.109 222.201 140.36 218.95 140.36 214.941C140.36 210.931 137.109 207.681 133.1 207.681H131.765C127.018 207.681 123.169 203.833 123.169 199.086V173.927ZM217.8 62.481C217.8 75.8461 206.965 86.681 193.6 86.681V38.281C206.965 38.281 217.8 49.1153 217.8 62.481ZM38.72 38.281C25.3548 38.281 14.52 49.1153 14.52 62.481C14.52 75.8461 25.3548 86.681 38.72 86.681V38.281ZM179.08 96.7999C179.08 131.55 150.91 159.72 116.16 159.72C81.4102 159.72 53.24 131.55 53.24 96.7999V29.04C53.24 21.021 59.7406 14.52 67.76 14.52H164.56C172.579 14.52 179.08 21.021 179.08 29.04V96.7999ZM164.56 243.981C164.56 247.99 161.309 251.241 157.3 251.241H75.02C71.0105 251.241 67.76 247.99 67.76 243.981C67.76 239.971 71.0105 236.721 75.02 236.721H157.3C161.309 236.721 164.56 239.971 164.56 243.981Z" fill="#EDEDED"/>
</svg>
